<svg viewBox="-8 0 480 480" xmlns="http://www.w3.org/2000/svg"><path d="m384 144-104-24v-64h48l-96-56-96 56h48v64l-104 24v272h304zm0 0" fill="#f0be59"/><path d="m144 360c-17.671875 0-32-14.328125-32-32v-4.183594c-15.515625 5.578125-32.484375 5.578125-48 0v4.183594c0 17.671875-14.328125 32-32 32s-32 14.328125-32 32v88h176v-88c0-17.671875-14.328125-32-32-32zm0 0" fill="#8c8c8c"/><path d="m432 360c-17.671875 0-32-14.328125-32-32v-4.183594c-15.515625 5.578125-32.484375 5.578125-48 0v4.183594c0 17.671875-14.328125 32-32 32s-32 14.328125-32 32v88h176v-88c0-17.671875-14.328125-32-32-32zm0 0" fill="#8c8c8c"/><path d="m288 360c-17.671875 0-32-14.328125-32-32v-4.183594c-15.515625 5.578125-32.484375 5.578125-48 0v4.183594c0 17.671875-14.328125 32-32 32s-32 14.328125-32 32v88h176v-88c0-17.671875-14.328125-32-32-32zm0 0" fill="#d9d9d9"/><path d="m224 368-16 80 24 24 24-24-16-80zm0 0" fill="#1cc8eb"/><path d="m64 240-16 16h-32c0 39.765625 32.234375 72 72 72s72-32.234375 72-72h-64zm0 0" fill="#fff5e0"/><path d="m88 184c-39.765625 0-72 32.234375-72 72h32l16-16 32 16h64c0-39.765625-32.234375-72-72-72zm0 0" fill="#a3771d"/><path d="m232 184c-39.765625 0-72 32.234375-72 72h32l24-16 24 16h64c0-39.765625-32.234375-72-72-72zm0 0" fill="#a3771d"/><path d="m216 240-24 16h-32c0 39.765625 32.234375 72 72 72s72-32.234375 72-72h-64zm0 0" fill="#fff5e0"/><path d="m344 232h64l16 24h24c0-39.765625-32.234375-72-72-72s-72 32.234375-72 72h24zm0 0" fill="#a3771d"/><path d="m448 256h-24l-16-24h-64l-16 24h-24c0 39.765625 32.234375 72 72 72s72-32.234375 72-72zm0 0" fill="#fff5e0"/><path d="m80 368-16 80 24 24 24-24-16-80zm0 0" fill="#1cc8eb"/><path d="m368 368-16 80 24 24 24-24-16-80zm0 0" fill="#1cc8eb"/><g fill="#ffb41f"><path d="m210.527344 159.585938-5.054688-15.203126 18.527344-6.152343v-90.230469h16v96c-.003906 3.441406-2.207031 6.496094-5.472656 7.585938zm0 0"/><path d="m157.472656 160.417969 23.992188-8.007813 5.0625 15.167969-23.996094 8.007813zm0 0"/><path d="m261.800781 159.6875 4.398438-15.390625 56 16-4.398438 15.390625zm0 0"/></g></svg>